# xmcd
#
# Track frame offsets:
#	187
#	16545
#	32625
#	43097
#	58910
#	74527
#	86385
#	100650
#	114747
#	130927
#
# Disc length: 1970 seconds
#
# Revision: 8
# Processed by: cddbd v1.5.1PL0 Copyright (c) Steve Scherf et al.
# Submitted via: EasyCDDAExtractor 7.0.5.1
#
DISCID=7f07b00a
DTITLE=George Strait - Ten Strait Hits
DYEAR=1991
DGENRE=Country
TTITLE0=Famous Last Words Of A Fool
TTITLE1=Baby Blue
TTITLE2=If You Ain't Lovin' (You Ain't Livin')
TTITLE3=Baby's Gotten Good At Goodbye
TTITLE4=What's Going On In Your World
TTITLE5=Ace In The Hole
TTITLE6=Overnight Success
TTITLE7=Love Without End, Amen
TTITLE8=Drinking Champagne
TTITLE9=I've Come To Expect It From You
EXTD=
EXTT0=
EXTT1=
EXTT2=
EXTT3=
EXTT4=
EXTT5=
EXTT6=
EXTT7=
EXTT8=
EXTT9=
PLAYORDER=
